<svg xmlns="http://www.w3.org/2000/svg" viewBox="0 0 320 180" role="img" aria-labelledby="title desc">
  <title id="title">Rose bouquet deluxe</title>
  <desc id="desc">A deluxe bouquet with red and pink roses.</desc>
  <defs>
    <linearGradient id="bg" x1="0" x2="1" y1="0" y2="1">
      <stop offset="0" stop-color="#fce9ef"/>
      <stop offset="1" stop-color="#e8f6ff"/>
    </linearGradient>
  </defs>
  <rect width="320" height="180" fill="url(#bg)"/>
  <path d="M112 72l48 87 48-87z" fill="#f8ede0"/>
  <path d="M112 72l48 87 15-68z" fill="#ead7c8"/>
  <path d="M160 90v58M143 90l17 58M177 90l-17 58" stroke="#28734f" stroke-width="6"/>
  <g fill="#c9284d">
    <circle cx="124" cy="66" r="19"/>
    <circle cx="158" cy="54" r="22"/>
    <circle cx="196" cy="66" r="19"/>
  </g>
  <g fill="#f45f88">
    <circle cx="142" cy="84" r="18"/>
    <circle cx="178" cy="84" r="18"/>
  </g>
  <g fill="#ffb2c9">
    <circle cx="124" cy="66" r="9"/>
    <circle cx="158" cy="54" r="10"/>
    <circle cx="196" cy="66" r="9"/>
    <circle cx="142" cy="84" r="8"/>
    <circle cx="178" cy="84" r="8"/>
  </g>
  <path d="M125 126c24 16 46 16 70 0" fill="none" stroke="#3f246d" stroke-linecap="round" stroke-width="7"/>
  <rect x="134" y="117" width="52" height="19" rx="9" fill="#ffdf00"/>
</svg>
