<svg xmlns="http://www.w3.org/2000/svg" viewBox="0 0 320 180" role="img" aria-labelledby="title desc">
  <title id="title">Wireless earbuds</title>
  <desc id="desc">Wireless earbuds and charging case.</desc>
  <defs>
    <linearGradient id="bg" x1="0" x2="1" y1="0" y2="1">
      <stop offset="0" stop-color="#e8f6ff"/>
      <stop offset="1" stop-color="#f8ecff"/>
    </linearGradient>
  </defs>
  <rect width="320" height="180" fill="url(#bg)"/>
  <rect x="85" y="96" width="150" height="54" rx="26" fill="#ffffff" stroke="#3f246d" stroke-width="7"/>
  <path d="M126 123h68" stroke="#c8b7dd" stroke-linecap="round" stroke-width="7"/>
  <path d="M112 50c20 0 35 17 35 38v28c0 10-8 18-18 18s-18-8-18-18V93c0-7-5-12-12-12h-4c-8 0-14-6-14-14s6-17 31-17Z" fill="#fff" stroke="#3f246d" stroke-width="7"/>
  <path d="M208 50c-20 0-35 17-35 38v28c0 10 8 18 18 18s18-8 18-18V93c0-7 5-12 12-12h4c8 0 14-6 14-14s-6-17-31-17Z" fill="#fff" stroke="#3f246d" stroke-width="7"/>
  <circle cx="125" cy="85" r="8" fill="#ffdf00"/>
  <circle cx="195" cy="85" r="8" fill="#ffdf00"/>
</svg>
